<svg width="20" height="28" viewBox="0 0 20 28" fill="none" xmlns="http://www.w3.org/2000/svg">
<path fill-rule="evenodd" clip-rule="evenodd" d="M7.353 4.93885C7.49145 5.07752 7.58611 5.2538 7.62522 5.44581C7.66433 5.63781 7.64618 5.83708 7.573 6.01885C6.98754 7.4739 6.8427 9.06895 7.15649 10.6057C7.47028 12.1424 8.22885 13.5529 9.33789 14.662C10.4469 15.771 11.8575 16.5296 13.3942 16.8434C14.9309 17.1572 16.526 17.0123 17.981 16.4269C18.1628 16.3538 18.362 16.3358 18.5539 16.375C18.7459 16.4142 18.9221 16.5089 19.0606 16.6474C19.1992 16.7859 19.2941 16.962 19.3334 17.1539C19.3728 17.3458 19.3549 17.545 19.282 17.7269C18.5375 19.5794 17.2557 21.1667 15.6016 22.2847C13.9474 23.4026 11.9965 23.9999 10 23.9999C4.477 23.9999 0 19.5229 0 13.9999C0 9.79285 2.598 6.19485 6.273 4.71785C6.45477 4.64468 6.65404 4.62652 6.84605 4.66563C7.03805 4.70474 7.21434 4.7994 7.353 4.93785V4.93885Z" fill="#CFCFCF"/>
</svg>
