<svg width="28" height="28" viewBox="0 0 28 28" fill="none" xmlns="http://www.w3.org/2000/svg">
<path fill-rule="evenodd" clip-rule="evenodd" d="M12.353 4.93885C12.4914 5.07752 12.5861 5.2538 12.6252 5.44581C12.6643 5.63781 12.6462 5.83708 12.573 6.01885C11.9875 7.4739 11.8427 9.06895 12.1565 10.6057C12.4703 12.1424 13.2289 13.5529 14.3379 14.662C15.4469 15.771 16.8575 16.5296 18.3942 16.8434C19.9309 17.1572 21.526 17.0123 22.981 16.4269C23.1628 16.3538 23.362 16.3358 23.5539 16.375C23.7459 16.4142 23.9221 16.5089 24.0606 16.6474C24.1992 16.7859 24.2941 16.962 24.3334 17.1539C24.3728 17.3458 24.3549 17.545 24.282 17.7269C23.5375 19.5794 22.2557 21.1667 20.6016 22.2847C18.9474 23.4026 16.9965 23.9999 15 23.9999C9.477 23.9999 5 19.5229 5 13.9999C5 9.79285 7.598 6.19485 11.273 4.71785C11.4548 4.64468 11.654 4.62652 11.846 4.66563C12.0381 4.70474 12.2143 4.7994 12.353 4.93785V4.93885Z" fill="#CFCFCF"/>
</svg>
